<svg id="f98c6c91-9124-4307-a836-ba42d80a9e19" data-name="Layer 1" xmlns="http://www.w3.org/2000/svg" viewBox="0 0 2000 2000">
  <g id="ad82ff30-1402-4e8b-aaf7-3b129b743137" data-name="Circle">
    <circle cx="1000" cy="1000" r="1000" fill="#fff"/>
  </g>
  <g id="fd2a061a-c844-41f0-9494-6e904ac49788" data-name="Zarimi">
    <path d="M1522.56,1291.26c1.15,60.35,2,120.58-21.37,178.34-22.07,54.63-56.58,100.61-102.88,138.81-5,4.15-14.79,7-12.14,15s12.39,5,19.09,6.36c51.52,10.48,103.11,20.67,154.63,31.21,14.14,2.89,27.16,8.8,22.9,25.52-4.56,18-19,13.79-32.58,10.42-237-58.74-478.29-63.59-720.77-52.6-129.28,5.87-257.49,20-382.61,53.6-13,3.49-25.85,4.35-29.61-11.6-3.52-15,6.89-21.63,20.4-24.41,52.5-10.8,105.06-21.35,157.57-32.1,6.66-1.36,16.65,1.1,18-7.45.62-3.81-6.32-9.47-10.82-13.2-88.68-73.53-129.18-166.48-125.12-278.26,1.54-42.42-1-85,.77-127.39.95-22.27-8.1-27.78-28.64-24.18-24.33,4.26-49,7.21-73,12.58-33.44,7.46-60.1-4.48-72.26-34.35-11.08-27.23.45-55.47,30.81-68.68,38.09-16.56,79.17-21.95,120.65-23.88,12.16-.56,21.08,0,21.72-16.58,4.6-119.73,85.12-188.22,184.6-241,73.86-39.19,154.67-60.65,238.93-68.51,17.95-1.67,26.24-5.94,28.66-25.49,4.61-37.11,36.38-61.57,72.15-60.73,35.06.82,64.42,24.29,68.75,60.78,2.36,19.81,11.24,23.43,28.77,25.49a867.29,867.29,0,0,1,91.49,15.3c18.48,4.2,25.76,2.13,26.87-17.81,2.07-36.92,18-47.18,65.49-46.13,45.67,1,58.2,11.39,59.55,49.37a82.42,82.42,0,0,1,.23,8.88c-3,41.21,10.87,69.83,50.86,93.94,77,46.43,125.59,113.83,128.65,204.6.5,14.81,6.49,18,20.5,18,37.51,0,74.09,7.15,109.51,18.31,37.49,11.82,54.52,39.63,45.16,69.87-10.61,34.26-40.26,47.64-81.19,36.62-93.73-25.23-93.73-25.23-93.73,65.81ZM1625.84,1114a225.15,225.15,0,0,0-73.26-10.87c-13.47-.93-29.35-8.66-30.95,15.21-1.34,20,7.18,24.29,26.54,25.57,28.67,1.89,57.09,7.8,85.46,12.79,11.69,2,20.57.32,25.55-10.6,5.2-11.37-.93-19.47-10.43-24.68C1641.89,1117.66,1633.53,1116.39,1625.84,1114ZM596.2,1550l.25.24c40.17,43.12,82.39,80.37,151,62,17.51-4.68,37-2.52,55.48-4,50.05-4,50-4.13,43.11-52.4.77-32.34,1.59-64.68,2.28-97,.54-25.46-1.55-51,7.63-75.83,36.83-99.68,171.83-139.06,263.12-46.77.57,5,3.23,8.21,8.58,9.11l-.36-.4c16.21,34.49,26.82,69.85,25.49,108.43-1.46,42.42.24,84.93-.6,127.38-.32,16.46,3,25,23.16,25.81,38.16,1.59,76.18,6.1,114.26,9.45,13.48,1.19,26.28,1.32,38.84-5.92,92.26-53.24,148.15-130.39,153.69-233.25,5.31-98.5,1.1-197.45,2.07-296.19.18-17.5-7.76-21.4-23.61-22.86-44.23-4.09-88.24-10.28-132.47-14.24-263.57-23.56-526.59-17.92-789,14.67-11.65,1.45-27.64-.81-21.09,19.17-.29,100.56-3,201.18,0,301.65,1.77,60.43,25.67,115.32,69,161.08C587.9,1545.3,590.57,1548.93,596.2,1550Zm626.37-746c-3.09-5-7.84-5.39-13.12-4.33-46.13-15.38-93.7-23.73-142.41-26.24-29-1.49-54.23-4.25-35.58-42.84,5.93-12.25.77-25.41-11.91-33.75-12.24-8.07-25-8.58-37.71-.87-12.91,7.82-20,20.66-13.83,32.94,21.41,43-8,42.77-38.36,44.85-100.46,6.86-195.34,32.58-280.95,83.86C591,892.2,541,934.5,523.56,1001.77c-9.15,18.86-.22,22.18,17.78,20.2,45.12-5,90.28-10,135.55-13.42,165.87-12.63,331.88-19.88,498.32-10.6,94.88,5.29,189.63,11.55,283.72,24.71,18.78,2.62,25.32-2.58,18.47-20.22-4.3-11.08-7-23-13-33.18-53.09-91.83-140.93-137.62-242.17-165.34Zm-110.91,753c.11-45.23,2-90.54-.12-135.67-2.68-56.14-51.57-99-109.95-100-58.13-.94-110.77,43.69-113.64,99.86-2.21,43.13.06,86.48.35,129.73-4.66,53.13-4.66,52.88,50.73,52.47q66.59-.5,133.19.19C1119.6,1604.09,1119.59,1604.36,1111.66,1557ZM477.88,1125.24c.25-13.3,1.45-23.85-14.25-23.78-37.21.16-73.92,3.7-108.36,18.12-11,4.63-18,13.73-13,26.32,4.66,11.71,14.48,11.56,25.59,9.43,30.16-5.8,60.09-13.65,91.21-12.87C474.75,1142.85,478.22,1134.26,477.88,1125.24Z" fill="#0f0b0c"/>
    <path d="M1272.83,547.33c0,26.9-5.18,53-12.52,78.78-3.12,10.93-10.73,17.75-22.63,15.1-12.23-2.71-16-12.66-12.53-23.3,23.61-72.26,3.66-140.42-20.52-208.31-28.2-79.17-27.83-157,13.36-232.48,6.18-11.33,10.28-30.18,29.91-21.62,18.35,8,10.76,22.93,3.72,35.54-39.81,71.26-36,144.09-9.15,217.92C1258.78,453.83,1271.92,499.38,1272.83,547.33Z" fill="#171616"/>
    <path d="M984.07,560.7c23.24-67.69,3.45-134.89-20.43-201.83-28.5-79.93-29.35-158.7,12.71-235.11,6.22-11.31,10.26-30.17,29.88-21.59,18.35,8,10.67,23,3.65,35.54-40.5,72.26-35.68,146-8.25,220.54,25.35,68.93,40.9,138.59,17.89,211.34-3.72,11.76-9.09,20.53-23.47,17.46C983.36,584.34,980.89,575.14,984.07,560.7Z" fill="#171515"/>
    <path d="M726.16,615.26c28.72-77-3.8-152.4-27.69-228.78-23-73.54-15.16-144.31,21.83-212.18,5.84-10.73,10.57-27.17,28.59-18.65,16.13,7.62,11.26,21.19,4.43,33.25-41.38,73-37.25,147.45-9,223.18C769.66,480,784.08,549,762.72,620.76c-3.29,11-7.43,21.86-21.63,20.89C728.48,640.78,724.34,631.69,726.16,615.26Z" fill="#151414"/>
    <path d="M1127.29,1345l.37.36v-.12C1127.54,1345.2,1127.41,1345.08,1127.29,1345Z" fill="#ec99a7"/>
    <path d="M1446.57,1099.52c-.38,79,.06,158-.25,236.9-.44,136.66-104.77,231.56-248.11,227.35-20.74-.59-26.76-7.65-26.21-26.34,1.12-33.51,2.49-67.32-.37-100.65-3-34.82-8-70.53-44-91.52.56-5.93-3.29-8.07-8.63-9C1027.8,1244,892.78,1283.39,856,1383c-9.19,24.85-7.08,50.42-7.64,75.86q-1,48.49-2.3,97c-20.56,1.19-41.36.89-61.67,3.86-63.41,9.37-127.13,27.93-187.93-9.43l-.24-.3c-.44-5.52-3.11-9.08-9.2-9.85-43.34-45.73-67.19-100.65-69-161-2.92-100.48-.31-201.14,0-301.67,127.56-18.45,256.11-25.63,384.73-29.72,173.46-5.58,346.35,5.4,518.82,22.83C1442.84,1072.71,1446.69,1082.32,1446.57,1099.52Z" fill="#ec99a7"/>
    <path d="M523.56,1001.77C541,934.5,591,892.2,648.7,857.66c85.61-51.28,180.49-77,280.95-83.86C960,771.72,989.42,772,968,729c-6.12-12.28.92-25.12,13.83-32.94,12.74-7.71,25.47-7.2,37.71.87,12.68,8.34,17.84,21.5,11.91,33.75-18.65,38.59,6.61,41.35,35.58,42.84,48.71,2.51,96.28,10.86,142.42,26.24,3.28,4.45,7.81,5.46,13.11,4.33l-.29-.12c10.88,16.24,30.78,18.75,46.5,27.52,62,34.62,120.13,73.17,154.42,136.27,4.55,8.38,14.29,17.82,7.41,27-7.61,10.16-20.71,4.28-31.67,3.25-76.72-7.17-153.31-18.07-230.2-20.72C953.16,969.8,738.06,980.15,523.56,1001.77Z" fill="#eb98a6"/>
    <path d="M1127.28,1345c36.32,21,41.39,56.83,44.35,91.79,2.83,33.35,1.49,67.11.4,100.64-.6,18.71,5.44,25.75,26.19,26.35,143.33,4.18,247.63-90.69,248.12-227.34.29-79-.16-158,.25-237,.09-17.18-3.77-26.8-25-28.94-172.5-17.42-345.35-28.38-518.83-22.84-128.65,4.12-257.21,11.3-384.73,29.75-6.55-20,9.44-17.73,21.09-19.18,262.43-32.59,525.45-38.23,789-14.67,44.23,4,88.24,10.15,132.47,14.24,15.85,1.46,23.79,5.36,23.61,22.86-1,98.74,3.24,197.69-2.07,296.19-5.54,102.86-61.43,180-153.69,233.25-12.56,7.24-25.36,7.11-38.84,5.92-38.08-3.35-76.1-7.86-114.26-9.45-20.14-.83-23.48-9.35-23.16-25.81.84-42.45-.86-85,.6-127.38C1154.1,1414.85,1143.49,1379.49,1127.28,1345Z" fill="#d6586d"/>
    <path d="M888.3,1551c-.29-43.25-2.56-86.6-.35-129.73,2.87-56.17,55.51-100.8,113.64-99.86,58.38.94,107.27,43.82,109.95,100,2.15,45.13.23,90.44.12,135.67C1037.4,1548.56,962.77,1552.36,888.3,1551Zm70.23-86.63c-3.26-11.25-10.13-20.21-25-19.34-13.36.77-20.8,9-20.26,21.13.62,13.8,10.71,21.44,24.49,20.59C949.84,1486,958.26,1478.71,958.53,1464.34Z" fill="#da3e58"/>
    <path d="M523.56,1001.77c214.5-21.62,429.6-32,645.18-24.53,76.89,2.65,153.48,13.55,230.2,20.72,11,1,24.06,6.91,31.67-3.25,6.88-9.18-2.86-18.62-7.41-27-34.29-63.1-92.39-101.65-154.42-136.27-15.72-8.77-35.62-11.28-46.5-27.52,101.24,27.72,189.08,73.51,242.17,165.34,5.91,10.22,8.65,22.1,13,33.18,6.85,17.64.31,22.84-18.47,20.22-94.09-13.16-188.84-19.42-283.72-24.71-166.44-9.28-332.45-2-498.32,10.6C631.62,1012,586.46,1017,541.34,1022,523.34,1024,514.41,1020.63,523.56,1001.77Z" fill="#d6586d"/>
    <path d="M888.3,1551c74.47,1.39,149.1-2.41,223.36,6,7.93,47.35,7.94,47.08-39.44,46.62q-66.59-.64-133.19-.19C883.64,1603.85,883.64,1604.1,888.3,1551Z" fill="#bc243d"/>
    <path d="M596.45,1550.28c60.79,37.39,124.46,18.8,187.92,9.45,20.28-3,41.09-2.64,61.66-3.82,6.93,48.27,6.94,48.38-43.11,52.4-18.52,1.49-38-.67-55.48,4C678.84,1630.65,636.62,1593.4,596.45,1550.28Z" fill="#d2596d"/>
    <path d="M477.88,1125.24c.34,9-3.13,17.61-18.81,17.22-31.12-.78-61.05,7.07-91.21,12.87-11.11,2.13-20.93,2.28-25.59-9.43-5-12.59,2-21.69,13-26.32,34.44-14.42,71.15-18,108.36-18.12C479.33,1101.39,478.13,1111.94,477.88,1125.24Z" fill="#da7b8b"/>
    <path d="M1625.84,1114c7.69,2.39,16.05,3.66,22.91,7.42,9.5,5.21,15.63,13.31,10.43,24.68-5,10.92-13.86,12.65-25.55,10.6-28.37-5-56.79-10.9-85.46-12.79-19.36-1.28-27.88-5.56-26.54-25.57,1.6-23.87,17.48-16.14,30.95-15.21.37,10.76-6.07,23.8,12.51,27.67C1588.81,1135.74,1611,1137.53,1625.84,1114Z" fill="#c95266"/>
    <path d="M1625.84,1114c-14.84,23.53-37,21.74-60.75,16.8-18.58-3.87-12.14-16.91-12.51-27.67A225.15,225.15,0,0,1,1625.84,1114Z" fill="#eb98a6"/>
    <path d="M1222.57,804c-5.3,1.13-9.83.12-13.11-4.33C1214.73,798.65,1219.48,799,1222.57,804Z" fill="#d6586d"/>
    <path d="M1119.06,1336.29c5.35.89,9.2,3.06,8.58,9.1C1122.29,1344.5,1119.63,1341.3,1119.06,1336.29Z" fill="#d6586d"/>
    <path d="M587,1540.18c6.07.73,8.76,4.34,9.21,9.86C590.57,1548.93,587.9,1545.3,587,1540.18Z" fill="#d2596d"/>
    <path d="M958.53,1464.34c-.27,14.37-8.69,21.64-20.78,22.38-13.78.85-23.87-6.79-24.49-20.59-.54-12.17,6.9-20.36,20.26-21.13C948.4,1444.13,955.27,1453.09,958.53,1464.34Z" fill="#120a0b"/>
    <rect x="610" y="1310" width="80" height="80" rx="20" fill="#120a0b"/>
    <rect x="610" y="1210" width="80" height="80" rx="20" fill="#120a0b"/>
    <rect x="710" y="1210" width="80" height="80" rx="20" fill="#120a0b"/>
    <rect x="710" y="1310" width="80" height="80" rx="20" fill="#120a0b"/>
  </g>
</svg>
